<svg width="44" height="52" viewBox="0 0 44 52" fill="none" xmlns="http://www.w3.org/2000/svg">
<path fill-rule="evenodd" clip-rule="evenodd" d="M42.6475 28.7768C41.9281 25.4693 40.2141 22.6892 38.0704 20.119C33.4379 14.5669 28.7811 9.03272 24.1356 3.49202C23.9647 3.28855 23.797 3.08346 23.6261 2.88L22.0619 1L20.4375 2.82791C20.3398 2.93697 20.2405 3.0444 20.1477 3.15671C16.9525 7.0046 13.7639 10.8574 10.5622 14.7004C8.5959 17.0606 6.53034 19.3345 4.66337 21.776C2.15344 25.0591 0.72269 28.7621 1.04498 32.9404C1.24681 35.5659 2.03788 37.9342 4.01066 39.7687C6.07621 41.6894 8.61055 42.3177 11.3581 42.4186C13.6841 42.5048 15.9613 42.1891 18.2042 41.6422C17.6899 43.864 16.4691 45.7847 14.8202 47.5719L11.5648 51.1008H16.3666C20.1266 51.1008 23.8866 51.1008 27.6466 51.1008H32.4206L29.1978 47.5784C27.5473 45.7749 26.3119 43.8558 25.7861 41.6275C28.8153 42.3746 31.8623 42.7213 35.0184 42.1435C38.3878 41.5266 40.9612 39.6775 42.1934 36.4172C43.1293 33.9366 43.2091 31.3551 42.6475 28.7768Z" stroke="#00BCF8" stroke-miterlimit="10"/>
<path d="M32.056 35.0744H30.7946C30.6448 35.0744 30.5227 35.0353 30.4267 34.9539C30.3307 34.8742 30.2558 34.77 30.2021 34.6414L27.5505 28.0752H16.448L13.7964 34.6414C13.7541 34.7586 13.6792 34.8595 13.5718 34.9458C13.4644 35.032 13.3374 35.0744 13.1877 35.0744H11.9408L21.1911 12.4672H22.8041L32.056 35.0744ZM27.0557 26.8626L22.4542 15.4394C22.2947 15.0666 22.14 14.619 21.9903 14.0965C21.9252 14.3521 21.8568 14.5946 21.7819 14.8241C21.7071 15.0536 21.6273 15.2636 21.5427 15.4556L16.9428 26.8626H27.0557Z" stroke="#00BCF8" stroke-miterlimit="10"/>
<path fill-rule="evenodd" clip-rule="evenodd" d="M27.6433 48.9131C23.8752 48.9131 20.1298 48.9131 16.3633 48.9131C19.0214 46.0321 20.7077 42.7962 20.5644 38.7058C20.0663 38.8539 19.6431 38.9825 19.2183 39.1062C16.6758 39.8468 14.091 40.3302 11.4346 40.2309C9.23396 40.1496 7.12771 39.7101 5.44141 38.141C3.86416 36.6744 3.30098 34.7635 3.14146 32.693C2.85824 29.0112 4.1604 25.8095 6.33339 22.9675C8.17921 20.5536 10.2317 18.2976 12.1785 15.9602C15.3802 12.1156 18.5705 8.26282 21.7657 4.4133C21.8292 4.33679 21.8975 4.26355 22.0082 4.13984C22.1921 4.36121 22.3565 4.55979 22.5226 4.75837C27.168 10.2974 31.8233 15.83 36.4557 21.3805C38.3683 23.6739 39.9471 26.1659 40.5933 29.1381C41.067 31.3176 41.0182 33.4874 40.2239 35.5904C39.2505 38.1654 37.2679 39.5099 34.6376 39.9917C31.0387 40.6509 27.575 39.9445 24.147 38.9125C23.9517 38.8539 23.7564 38.7986 23.4064 38.696C23.2827 42.7864 24.9869 46.0109 27.6433 48.9131Z" stroke="#00BCF8" stroke-miterlimit="10"/>
</svg>
